<svg width="330" height="299" viewBox="0 0 330 299" fill="none" xmlns="http://www.w3.org/2000/svg">
<g clip-path="url(#clip0_3_232)">
<path d="M291.309 158.093C291.433 159.79 291.765 160.37 291.682 161.033C276.46 203.493 249.248 235.651 207.64 254.113C197.144 258.801 185.653 260.674 173.871 260.021C148.607 258.84 127.987 242.084 121.597 217.739C118.194 205.069 117.156 192.356 121.967 179.763C127.817 177.729 133.707 175.902 139.059 173.537C147.77 169.638 154.283 163.379 157.145 153.976C159.426 147.058 158.181 140.847 154.198 138.2C148.971 134.726 143.163 135.89 138.932 139.538C133.041 144.595 127.732 150.397 122.878 156.323C119.767 160.177 117.486 164.941 115.121 169.291C90.9771 170.47 76.5802 150.314 81.0171 121.859C84.1698 120.366 87.53 118.831 90.6413 117.131C102.049 110.537 109.848 101.006 111.714 87.7106C112.419 82.6163 112.003 77.3157 106.817 74.0483C102.876 71.6081 97.0682 72.7723 91.9244 77.249C83.8768 84.4613 79.0652 93.8245 75.2078 103.642C73.9635 107.122 72.7192 110.602 71.6823 114.04C34.5532 117.176 2.31714 89.8276 10.4457 55.0343C7.79069 55.7819 5.46753 56.0322 4.389 57.1098C3.14454 58.436 2.77135 60.8797 2.73001 62.8261C2.93878 81.089 8.29154 97.0286 23.8493 107.908C35.4243 116.14 48.4095 120.643 62.5977 122.537C64.589 122.784 66.5803 123.031 68.6131 123.484C68.8205 123.443 69.1109 123.815 69.8992 124.519C70.0653 126.424 70.5218 128.701 70.5634 131.061C71.7686 159.677 82.1409 172.672 110.642 180.311C110.31 182.961 110.061 186.026 109.564 188.925C107.366 205.948 110.147 221.972 118.777 237.04C132.759 261.586 158.772 274.03 187.77 270.156C203.534 268.073 217.929 262.387 231.328 253.887C263.643 233.196 286.749 205.307 298.071 168.15C298.776 166.286 299.233 164.257 299.938 162.393C300.104 162.144 300.477 161.854 301.597 160.983C304.668 167.69 305.373 174.439 306.286 181.147C307.365 187.607 308.071 194.357 309.067 201.479C314.336 199.777 315.829 196.463 316.368 192.694C316.783 188.303 317.612 183.83 316.99 179.648C315.163 168.385 313.088 156.957 310.183 145.695C307.777 136.917 302.508 135.389 296.037 140.778C282.389 152.343 268.782 164.115 255.176 175.888C252.978 177.836 251.277 180.115 248.829 182.974C254.181 185.993 257.168 183.672 259.989 181.599C270.028 173.557 280.191 166.136 291.309 158.093ZM101.84 81.5066C102.836 96.1659 95.4943 106.898 82.7586 110.097C87.0722 99.3259 90.8466 89.094 101.84 81.5066ZM148.017 145.038C147.562 157.835 140.427 165.295 127.525 166.589C132.586 157.392 137.439 149.312 148.017 145.038Z" fill="#0D1927"/>
</g>
<defs>
<clipPath id="clip0_3_232">
<rect width="246" height="287" fill="white" transform="matrix(0.196546 0.980495 0.980495 -0.196546 0.123871 57.1034)"/>
</clipPath>
</defs>
</svg>
