<?xml version="1.0" encoding="UTF-8"?>
<svg id="Camada_2" data-name="Camada 2" xmlns="http://www.w3.org/2000/svg" viewBox="0 0 68.7 57.3">
  <g id="Layer_2" data-name="Layer 2">
    <g>
      <path d="m5.7,7.7C3.5,5.9,3,1.5,4.1,0c2.8,3.9,7.1,6.2,9.5,6.9,2.9.9,5.6,1.6,7.4,4.6-3.5-1.6-4.5-1.7-5.2-1.8,2.7,1.3,4.3,2.8,5,4-4.9-3-7.8-2.7-12.1-6.3,1.8.5,2.6.6,3,.6-3.6-2-6.3-4.4-7-5.4.2,1.8.6,3.7,1.1,4.9Z" fill="#fff" stroke-width="0"/>
      <path d="m24.5,15.1c-1.9-1.1-3-3.4-2.6-6.3,2.6,1.2,4.6,3.8,4.5,6.3-1.1-1.5-2.1-2.7-3.1-3.4.9,1.6,1.1,2.8,1.2,3.4Z" fill="#fff" stroke-width="0"/>
      <path d="m27,12.9c-1.2-1.6-1.3-3.2-.4-4.4,1.7,1.1,2.3,2.6,1.6,4.1-.3-1.1-.9-1.9-1.2-2.3,0,1.3,0,1.9,0,2.6Z" fill="#fff" stroke-width="0"/>
      <path d="m30.2,16.7c-1.4-1.6-1.9-3.3-.9-5,1.5.6,2.2,2.1,2.1,3.7-.7-1.2-1.4-1.5-1.6-1.8,0,1,.3,2.4.4,3.1Z" fill="#fff" stroke-width="0"/>
      <path d="m31.9,13.8c-.3-1.3-1.5-2.7-2.8-3.1,0-1.2.7-1.9.7-1.9,1.1.5,1.9,2.1,1.9,2.4.4-1.7,1.6-2.9,1.9-3,.7,1.1.3,2.8-.4,3.8-.2-.5-.2-1.2-.3-1.5-.6.6-1,1.3-1.1,3.4Z" fill="#fff" stroke-width="0"/>
      <path d="m32.7,15.5c.3-2.2,1.4-3.6,2.2-4,1.1,1.1,1.5,2.8,1.5,3.1-.5,1-1.2,1.9-1.2,1.9-.1-1.1-.3-2.2-.7-2.9-.3.7-.5,2.4-.5,2.9-.4-.6-.9-1-1.4-1.1Z" fill="#fff" stroke-width="0"/>
      <path d="m35.5,10.8c0-1.7.9-2.6,1.4-2.8.5,1,.9,1.9.9,1.9-.8,1.1-1.1,1.9-1.1,2.3-.4-1-1-1.2-1.1-1.3Z" fill="#fff" stroke-width="0"/>
      <path d="m37.2,13.8c0-2.1,1.5-4.3,3.2-5,.2.8.2,1.6,0,2.2-.2-.3-.4-.6-.4-.6-1.4,1.5-1.9,2.6-2.8,3.5Z" fill="#fff" stroke-width="0"/>
      <path d="m38.9,16.6c0-3.9,2.2-6.3,4.7-7.2.4.3.5.8.5.8-1.7,1.1-1.8,4.2-3.6,5.6.3-1.8.5-3,.7-3.5-1.3,1.2-1.8,3.2-2.3,4.2Z" fill="#fff" stroke-width="0"/>
      <path d="m43.1,14.2c.1-2.2,1.5-4.5,4.4-5-1.3,2.2-2.5,6-3.5,6.8.5-2.1.9-4.2,1.3-4.7-1.2.7-1.5,2.1-2.2,2.9Z" fill="#fff" stroke-width="0"/>
      <path d="m36.4,23.1c1.4-3.6,5.2-7.1,6.8-7.9-.2,1.9-1.6,4.2-2.4,5,0-.6,0-1.5.1-1.9-1.3,1.8-2.5,3.5-4.5,4.8Z" fill="#fff" stroke-width="0"/>
      <path d="m40.4,22.2c2.8-2.5,4-7.4,12.4-9.2-4.5,3.2-7.2,10.2-12.2,11.5,2.6-1.7,3.7-3.8,4.2-5-1.8,1.9-3.3,2.4-4.5,2.8Z" fill="#fff" stroke-width="0"/>
      <path d="m34,26.8c1-2.4,4.2-3.1,5.2-4.4.1,2.8-1.4,5.4-3.8,5.2.9-.9,1.2-1.3,1.4-2.1-1.1.6-2.3,1.1-2.8,1.3Z" fill="#fff" stroke-width="0"/>
      <path d="m32.7,24.3c.2-.8,1.4-1.6,2.4-1.8.2,1.3-1.5,2.4-1.5,2.4l-1-.6Z" fill="#fff" stroke-width="0"/>
      <path d="m35.5,21.2c-.3-2.8-.2-4.7,2.3-6.8.6,2.4.3,4.1-.4,5,0-.9-.3-1.6-.3-1.6-.6,1.5-1.1,2.6-1.6,3.4Z" fill="#fff" stroke-width="0"/>
      <path d="m32.4,22.7c-2.2-1.1-1.7-4,.2-6.1,1.7,1,1.6,4,.9,5.5-.6-1.5-.7-2.8-.7-3.8-.6,1.1-.7,3.1-.4,4.4Z" fill="#fff" stroke-width="0"/>
      <path d="m30.1,20c0-2.8-2.3-4.6-4.6-4.3,1.2,2.5,1.6,6.5,4.6,6.8-1.3-1.9-2-4.5-2.7-5.5,1.3.7,2.2,2.2,2.7,3Z" fill="#fff" stroke-width="0"/>
      <path d="m32.7,28.3c-3.3-.5-4.6-3.2-5-4.6,1.5-.4,3.9,0,4.8,1.9-1.5-.8-2.8-.9-3.1-1,1.9,1.2,3,3.1,3.3,3.7Z" fill="#fff" stroke-width="0"/>
      <path d="m26.8,23.9c-4.1-1.9-8.8-9.2-11.5-10.6,3.3.7,7.7.9,11.1,7.1-1.9-1.8-3.8-3.3-4.9-3.8,3,3.4,4.4,5.9,5.3,7.3Z" fill="#fff" stroke-width="0"/>
      <path d="m49.1,19.9c1.4-2.5,7-6.5,8-7.3-1.1,3.3-6.2,5.8-8,7.3Z" fill="#e0ac65" stroke-width="0"/>
      <path d="m47.3,12.9c2.6-7.9,9.7-5.7,15.9-10.8-1.6,3.6-7,5.3-8,5.9,1.7-.2,4.1-1.2,4.6-1.4-4,3.6-8.6,4.7-11.2,6.7,1.1-2.1,4-3.9,4.6-4.3-1.8.4-4.8,2.7-5.9,3.8Z" fill="#fff" stroke-width="0"/>
      <path d="m63.7,4.3c-.3,1.5-3.1,4.7-3.1,6.4,2.1-1,3-3.6,3.1-6.4Z" fill="#e0ac65" stroke-width="0"/>
      <path d="m59.9,15.4c0-1.5,2-3,2.8-3.5,0,2.1-2,3.9-2.8,3.5Z" fill="#e0ac65" stroke-width="0"/>
      <path d="m60.8,17.7c.3,1.1,2.4,2.1,2.9,2.9.6-1.7-.9-2.6-2.9-2.9Z" fill="#e0ac65" stroke-width="0"/>
      <path d="m13.9,24.8c0-3.1,2.3-4.7,4.4-4.1-1.8.5-3.8,2.1-4.4,4.1Z" fill="#fff" stroke-width="0"/>
      <path d="m14.3,28.3c-.1,2,2,4.7,5.7,3.7-2.2-.3-4.4-1.1-5.7-3.7Z" fill="#fff" stroke-width="0"/>
      <path d="m6.2,13.3c-1.8-1.2-2.2-2.7-2.5-3.3,1.2-.7,2.4-.3,2.8-.2-.6.3-1.5.9-1.5.9.8,1.4,1,2.1,1.2,2.6Z" fill="#fff" stroke-width="0"/>
      <path d="m10.9,15.6c-1.6-.6-2-2.9-2-3.5,1.5,0,3.3.8,3.7,1.7-1.2-.2-2.3-.4-2.3-.4.2.9.5,1.9.6,2.2Z" fill="#fff" stroke-width="0"/>
      <path d="m13.5,15.6c-.3,1.1.6,3.3,2.3,3.2-1-1.2-1.7-2.5-2.3-3.2Z" fill="#fff" stroke-width="0"/>
      <path d="m8,18.6c-1.7-.4-2.4-2.5-2.5-3.5,1.8-.4,4.1.3,4.5,1.5-.8-.2-2.2.2-2.2.2.1.6.2,1.4.2,1.8Z" fill="#fff" stroke-width="0"/>
      <path d="m13.9,20.3c-1-2.3-3.1-3.1-4.8-3.1.2,1.9,2.6,3.2,3.4,4.1-.3-1.2-1.6-2.5-1.9-2.9,1.4.2,2.5,1.6,3.3,1.9Z" fill="#fff" stroke-width="0"/>
      <path d="m10.5,21.4c-1.5-2-4.7-2.8-6.9-1.4,1.5,1.5,4.4,2.5,5.3,2.5-.9-1-2-1.8-2.5-2.1,1.7-.1,3.2.7,4.2,1Z" fill="#fff" stroke-width="0"/>
      <path d="m12.1,23.9c-2-1.6-5.5.5-5.9,1.1,1.3,1,5.7.7,6.4.8-.8-.9-2.6-1-3.4-.8.7-.5,1.9-1,2.9-1.1Z" fill="#fff" stroke-width="0"/>
      <path d="m5.6,23.9c-1.3-1-3.6,1-4,2.7,1.6,0,3.1-.2,3.6-.4-.6-.6-1.7-.6-1.9-.5.6-.9,1.6-1.6,2.3-1.8Z" fill="#fff" stroke-width="0"/>
      <path d="m17.4,23.1c-2.3,1.2-2.4,6.4,1.6,7.4,3.7.9,5.9-2.1,5.8-3.7-.6,1.1-1.7,2-2.8,2.3,1.2-.9,1.9-2.1,1.6-3.3-.7,1.6-2.3,2.6-4,2.1-1.9-.6-2.2-3.2-.7-4.5-1.8.7-2.1,2.7-1.5,4.1-1-.9-1.1-3.1,0-4.5Z" fill="#e0ac65" stroke-width="0"/>
      <path d="m49.1,23.1c2.3,1.2,2.4,6.4-1.6,7.4-3.7.9-5.8-2.3-5.7-3.8.6,1.1,1.5,2.2,2.7,2.5-1.2-.9-1.7-2.1-1.5-3.3.7,1.6,2.1,2.6,3.8,2.1,1.9-.6,2.2-3.2.7-4.5,1.8.7,2,3.3,1.5,4.1,1.2-.8,1.1-3.1,0-4.5Z" fill="#e0ac65" stroke-width="0"/>
      <path d="m32.9,31.4c-.8.2-1.8,1.5-1.3,4.1.5,2.7,1.5,5.2,1.9,5.2s.3-7.4.3-8.4c0-1-.7-1-.9-1Z" fill="#fff" stroke-width="0"/>
      <path d="m30.2,29.2c-.9-.8-2.8.5-2.8,1.8,1.5.6,3.1-.3,3.6-.8-.7-.2-1.7,0-2,.1.3-.6.9-1,1.2-1.1Z" fill="#fff" stroke-width="0"/>
      <path d="m4.4,28c-1.6-.3-4,1.9-4.1,4.6,1.5-.9,4.3-1.2,5-1.2-.6-1-2.4-1.2-3-.9.6-1.1,1.4-2,2.1-2.4Z" fill="#fff" stroke-width="0"/>
      <path d="m4.6,29.7c1.1-2,4.7-2.9,7.7-2.4-1.8.4-3.9,1-4.3,1.3,1.9.2,4,.1,4.7.4-2.4,1.6-6.3.8-8.1.6Z" fill="#fff" stroke-width="0"/>
      <path d="m13.4,30.6c-3.4-.7-7.6,2.9-8.5,4.7,2.7-1.1,6.3-.7,9.4-3.2-1.9.1-3.2.3-4.3.7,1.1-1.1,2.3-1.7,3.4-2.2Z" fill="#fff" stroke-width="0"/>
      <path d="m3.9,34c-.8-.3-1.9-.2-1.9-.2-1.5,1.5-1.8,3.4-1.9,4.3,2.7-2.2,3.6-2.8,3.9-4.1Z" fill="#fff" stroke-width="0"/>
      <path d="m7.2,36.6c-2.8-.1-5.7,2.8-5.6,7,2.1-1.6,6.6-3.4,6.9-5.7-2.7,1.2-4.1,1.9-4.7,2.3,1-2,2.6-3.2,3.4-3.6Z" fill="#fff" stroke-width="0"/>
      <path d="m14.1,34.6c-1.7-.2-4.2,1.7-3.9,4.1,3.7-.3,6-2.9,6.1-4.2-1.9,1.1-3.6,2.1-4.1,2.4.8-1.2,1.3-1.8,1.9-2.2Z" fill="#fff" stroke-width="0"/>
      <path d="m20.5,33.8c-1.7,0-3.5,1.5-3.2,3.4,2.4.2,5.4-1.6,5.5-3-1.6.8-3.2,1.3-3.6,1.5.6-.9,1-1.5,1.4-1.9Z" fill="#fff" stroke-width="0"/>
      <path d="m25.8,32c-.9,0-2,1.2-1.6,2.3,1.8,0,3.6-.8,4-1.9-1.3.3-2.6.7-3,1,.4-.7.6-1,.6-1.4Z" fill="#fff" stroke-width="0"/>
      <path d="m16.1,37.8c-1.6.2-2.8,2.8-2.5,4.9,3.1-.7,6.2-3.7,7.1-4.9-2.7.7-4.6,1.9-5.8,3,.5-1.7,1.1-2.4,1.1-3Z" fill="#fff" stroke-width="0"/>
      <path d="m10.1,40c-3.2.6-5.3,5.4-4.3,9.1,1.3-2.7,5.8-6.4,6.3-7.7-3.2,1.1-4.5,3.1-4.9,3.8.5-2.2,1.4-4,2.8-5.2Z" fill="#fff" stroke-width="0"/>
      <path d="m13.3,44.1c-2.2.6-3.8,4.1-2.2,8.4,2.6-2,6.2-7.1,7.6-9.4-2.9,1.1-5.8,3.8-6.6,6.2,0-2.6.6-4.2,1.1-5.2Z" fill="#fff" stroke-width="0"/>
      <path d="m24.5,36.4c-2.1.9-4.5,4.9-3.6,8.4,2.4-1.1,4.8-5.3,4.7-7-1.4,1.7-2.9,3.2-3.2,3.6.4-2,1.7-4.4,2.1-5.1Z" fill="#fff" stroke-width="0"/>
      <path d="m28.4,34.7c-1.3.5-1.8,2.8-.2,4.3,1.3-.9,1.4-2.9,1.1-3.7-.5.8-.8,1.4-.9,1.9-.2-.8-.2-2,0-2.5Z" fill="#fff" stroke-width="0"/>
      <path d="m27,39.7c-1,1.8-1,4.1.2,5.8,1.9-1.3,2.3-3.9,2-5.6-.5.8-1.2,2.2-1.4,2.9-.2-1.7-.5-2.9-.8-3.2Z" fill="#fff" stroke-width="0"/>
      <path d="m19.5,45.8c-2.4,1.5-2.8,5.4-1.7,9.6,3.2-2.2,5.7-7.5,5.4-10.2-2.1,2.6-3.7,5.6-4.1,6.8-.3-2.7.2-5.2.4-6.2Z" fill="#fff" stroke-width="0"/>
      <path d="m26,46.6c-2.2,2.3-3.1,6.3,0,10.7,2.4-3.9,3.1-8.3,2.4-10.9-1.2,2.1-2.2,6.1-2.2,7.6-.7-2.8,0-6.2-.2-7.3Z" fill="#fff" stroke-width="0"/>
      <path d="m31,42.3c-1.1,1.3-.9,4.1,1,4.9,1.4-1.5,1-3.2.7-3.8-.2.7-.6,1.3-.8,1.7-.6-.9-.8-2.1-.9-2.9Z" fill="#fff" stroke-width="0"/>
      <path d="m31.2,48.3c-.9,2-.8,6.4,1.9,8.5,1.6-1.6,2.3-5.5.4-8.2,0,1.7-.3,4.6-.4,5.5-.6-2.4-1.4-5.2-1.9-5.8Z" fill="#fff" stroke-width="0"/>
      <path d="m37.2,53.3c-.3,1.2-.3,2.9,1.6,4.1.8-1.3.6-2.2.5-2.5s-1.5-1.2-2.1-1.6Z" fill="#fff" stroke-width="0"/>
      <path d="m35.1,44.8c-.3,1.6,0,4.1,2.6,5.7,0-1.7,1.6-4.7-1.4-7.5.5,1.7.7,4.3.7,5.4-.7-1.8-1.5-2.8-1.9-3.5Z" fill="#fff" stroke-width="0"/>
      <path d="m36.7,36.4c-.3,1.9.8,3.5,2.1,4,.6-1.6.2-2.8-.6-3.6.2.8,0,1.5,0,1.9-.7-1.3-1.1-1.8-1.5-2.3Z" fill="#fff" stroke-width="0"/>
      <path d="m37.8,33.3c.6,2.3,1.8,3.2,3,3.7.3-1.9-.2-3.4-1.5-3.6.4.9.5,1.4.6,1.7-1-1.1-1.8-1.6-2.1-1.9Z" fill="#fff" stroke-width="0"/>
      <path d="m42.8,33.3c1.3,2.4,3.8,2.9,5.4,2.6,0-.5,0-1.2-.7-1.7,0,.4,0,.8,0,.8-2.2-.7-3.5-1.1-4.6-1.7Z" fill="#fff" stroke-width="0"/>
      <path d="m49,32c1.5-.4,3.4-2.5,3.8-3.7.3,2.3-1,3.7-3.8,3.7Z" fill="#fff" stroke-width="0"/>
      <path d="m55.5,21.6c.2-1.1.8-1.4,1.7-1,.1.9-1.4.9-1.7,1Z" fill="#fff" stroke-width="0"/>
      <path d="m57.6,24.8c.8-1.4,1.7-1.4,2.6-.2-.9.8-2,.4-2.6.2Z" fill="#fff" stroke-width="0"/>
      <path d="m56.7,28.3c1.5-.7,3.3-.5,3.4,1.7-1.2,0-2.4-.9-3.4-1.7Z" fill="#fff" stroke-width="0"/>
      <path d="m55.9,32.4c2.4,0,3.5,1.1,3.3,3.1-1.5-.4-2.1-2.3-3.3-3.1Z" fill="#fff" stroke-width="0"/>
      <path d="m51.6,35.7c.8,1.4,3.2,2.1,4.1,2.1,0-1.1-.6-2.1-1.5-2.6-.2.4,0,.9,0,.9-1.1,0-2-.2-2.6-.4Z" fill="#fff" stroke-width="0"/>
      <path d="m47,37.8c.6,1.7,3.9,3.4,5.4,3.5.5-1.9-.2-3.8-2.2-4.1.5,1.1,1.2,2.7,1.3,3-2.1-1.6-3.6-1.7-4.6-2.4Z" fill="#fff" stroke-width="0"/>
      <path d="m42.8,37c2.2.3,2.8,2.7,2.8,5.3-1.8-1.3-3.6-1.6-4.4-3.9,1-.1,2.6,1.2,3,1.8-.3-1.4-.9-2.6-1.4-3.2Z" fill="#fff" stroke-width="0"/>
      <path d="m38.2,42.3c.2,1.7,2.8,3.2,4.1,3.4,0-2.4-.9-3.9-2.1-4.4.1,1,.7,2.3.7,2.3-1.1-.7-2.1-.9-2.7-1.3Z" fill="#fff" stroke-width="0"/>
      <path d="m39.6,49.1c0,1.7.8,4.2,4.1,6.6,1-3.8-.6-7.1-2.3-8.2.6,1.6,1.4,4.5,1.5,5.5-1.2-2-2.6-3.7-3.3-4Z" fill="#fff" stroke-width="0"/>
      <path d="m44.9,45.3c0,2.6,3.6,6.7,5,8.2.6-3.4.4-6.7-2.8-8.7.7,1.5,1.3,4,1.5,5.1-1.8-2.7-3.1-3.4-3.7-4.6Z" fill="#fff" stroke-width="0"/>
      <path d="m51.6,44.8c.5,1.8,3.2,5.2,3.4,7.1,1.1-3.9-.4-6.2-3.4-7.1Z" fill="#fff" stroke-width="0"/>
      <path d="m58.9,42.6c-.5.9,1,4.7,1.6,6,.9-3.6.2-4.9-1.6-6Z" fill="#e0ac65" stroke-width="0"/>
      <path d="m64.5,45.9c-.1-1.7-1.2-6.9-3.3-8.9,3.5.2,4.6,3.8,3.3,8.9Z" fill="#e0ac65" stroke-width="0"/>
      <path d="m62.6,28.5c2.6-.2,5.1,2.6,5.1,4.9-2.3-.4-2.5-3.4-5.1-4.9Z" fill="#e0ac65" stroke-width="0"/>
      <path d="m65.9,26.9c0-2.6-1.6-3.4-3.8-3.8,1.3,2,3.1,3.6,3.8,3.8Z" fill="#e0ac65" stroke-width="0"/>
      <path d="m65.5,34.9c2.5.8,3.4,3.3,3.2,5.7-1.8-1-1.9-4-3.2-5.7Z" fill="#e0ac65" stroke-width="0"/>
    </g>
  </g>
</svg>