<?xml version="1.0" encoding="UTF-8"?>
<svg id="Camada_2" data-name="Camada 2" xmlns="http://www.w3.org/2000/svg" viewBox="0 0 195 201.9">
  <g id="_Layer_" data-name="&amp;lt;Layer&amp;gt;">
    <g>
      <path d="m32.8,100.7c0-1.9,1.6-3.5,3.5-3.5h29.7c1.9,0,3.5,1.6,3.5,3.5s-1.6,3.5-3.5,3.5h-29.7c-1.9,0-3.5-1.6-3.5-3.5Z" fill="#fffeeb" stroke-width="0"/>
      <g>
        <path d="m109.9,44.5l10.5-26.3c28.5,1.8,54.3,10.5,67.4,35.7,14.1,27.4,5.1,56.9-8.1,78.8l-43.7-23.9s20.5-20.2,14.6-42.3c-5.8-22-40.8-22.2-40.8-22.2Z" fill="#3180b5" stroke-width="0"/>
        <path d="m171.8,95.8c-8.9-4-16.1-4.9-24-4.2-4.6,10.3-11.7,17.3-11.7,17.3l43.7,23.9c2.2-3.7,4.4-7.6,6.3-11.8,0-1.4.1-2.7.1-3.8,0-7.8-6.2-17.7-14.3-21.4Z" fill="#1c5482" stroke-width="0"/>
        <path d="m116.2,16.8s-1.6-2.8-3.1-5.1c-2.3-3.4-5-3-5.8-2.3-.9-1-1.7-1.8-2.4-2.1-1.1-.5-2.3.1-3.2.9C92.1-.2,85.7,0,84.9,2.3c-.8,2.4.3,4.2,4.3,7.8,4.2,3.8,8.4,8,9.2,10.4.9,2.7-1.6,10-4.9,11.2-1.7.6-7.4-2-11.4-1.7-1.4.1-3.3,2-3.2,4,.1,2.1,1.1,4,5.5,5.2,4.5,1.3,8.4,6.2,17.2,4.7l8.4.5,10.5-26.3-4.3-1.4Z" fill="#ffa194" stroke-width="0"/>
        <path d="m107.3,14.6c-.2,0-.5-.1-.6-.3-1.7-2.4-5.5-5.6-5.5-5.6-.3-.3-.4-.8,0-1.1.3-.3.8-.4,1.1,0,.2.1,4,3.3,5.8,5.9.2.4.2.8-.2,1.1-.1,0-.3.1-.4.1Z" fill="#db5349" stroke-width="0"/>
        <path d="m111,13.7c-.2,0-.4,0-.5-.2l-3.7-3.5c-.3-.3-.3-.8,0-1.1.3-.3.8-.3,1.1,0l3.7,3.5c.3.3.3.8,0,1.1-.2.2-.4.2-.6.2Z" fill="#db5349" stroke-width="0"/>
        <path d="m164.7,42.5c1.1-3.6,3-6.7,5.4-9.2,7.1,5.2,13.2,11.9,17.7,20.7,2.7,5.3,4.6,10.6,5.7,16-4.3,1.5-9.1,1.7-13.8.3-11.8-3.5-18.6-15.9-15.1-27.8Z" fill="#0dba98" stroke-width="0"/>
      </g>
      <g>
        <g>
          <path d="m139.3,70.6c-1.6,7.3,4.5,18.6,11.8,20.2,1.6.4,3.2.4,4.7.2,5.4-.7,10.1-4.8,11.3-10.4,1.6-7.3-3.2-14-10.2-16.6-8.5-3.2-15.9-1.4-17.7,6.6Z" fill="#28121f" stroke-width="0"/>
          <path d="m155.8,91s-8.5-1.7-6.8-10c0,0-4-2.7.5-9.7,0,0-3.6-.7-5.4-1.4-.8-.3-1.4-.6-1.9-.9-.9-.5-2.1-.2-2.7.6-1.1,1.6-1.7,3.2-2.2,4.4-.3.9-.9,2.5-.9,2.5l-1.8-.4c-.5-.1-1,.4-.8.9l1.1,3.6c-1.9,6.2-2.6,8.4,7.3,11.4l.8,5.6h13.6c0,0-.9-6.6-.9-6.6Z" fill="#ffa194" stroke-width="0"/>
          <g>
            <path d="m152.4,82.5c-.8,1.9-3,2.8-4.9,2-1.9-.8-2.8-3-2-4.9.8-1.9,3-2.8,4.9-2,1.9.8,2.8,3,2,4.9Z" fill="#ffa194" stroke-width="0"/>
            <path d="m151.1,81.9c-.5,1.2-1.9,1.7-3,1.2s-1.7-1.9-1.2-3c.5-1.2,1.9-1.7,3-1.2,1.2.5,1.7,1.9,1.2,3Z" fill="#db5349" stroke-width="0"/>
            <path d="m151.5,73.6c-.7,1.5-2.4,2.2-3.9,1.6-1.5-.7-2.2-2.4-1.6-3.9.7-1.5,2.4-2.2,3.9-1.6,1.5.7,2.2,2.4,1.6,3.9Z" fill="#28121f" stroke-width="0"/>
            <path d="m145.9,67.9c-1,2.3-3.7,3.4-6.1,2.4-2.3-1-3.4-3.7-2.4-6.1,1-2.3,3.7-3.4,6.1-2.4,2.3,1,3.4,3.7,2.4,6.1Z" fill="#28121f" stroke-width="0"/>
            <path d="m152,64.4c-1,2.3-3.7,3.4-6.1,2.4-2.3-1-3.4-3.7-2.4-6.1,1-2.3,3.7-3.4,6.1-2.4,2.3,1,3.4,3.7,2.4,6.1Z" fill="#28121f" stroke-width="0"/>
          </g>
          <path d="m143,97.6l-.8-5.6,3.8.7c.7.1,1,.9.7,1.5-.6.9-1.7,2.2-3.6,3.3Z" fill="#db5349" stroke-width="0"/>
        </g>
        <path d="m140.8,74.7s-.1-.4-.5-.6c-.4-.2-.8,0-.8,0-.3.3-.8.2-1.1-.1-.3-.3-.2-.8.1-1.1.4-.3,1.3-.7,2.3-.3,1,.4,1.4,1.2,1.5,1.7l-1.5.3h0Z" fill="#28121f" stroke-width="0"/>
        <path d="m143.3,80.6c-.1,1.3-1.3,2.2-2.5,2-1.3-.1-2.2-1.3-2-2.5.1-1.3,1.3-2.2,2.5-2,1.3.1,2.2,1.3,2,2.5Z" fill="#f4756e" stroke-width="0"/>
        <path d="m136.2,82.8c-.1,1.3-1.3,2.2-2.5,2-1.3-.1-2.2-1.3-2-2.5.1-1.3,1.3-2.2,2.5-2,1.3.1,2.2,1.3,2,2.5Z" fill="#28121f" stroke-width="0"/>
        <path d="m140.1,76.3c0,.4-.4.8-.8.7-.4,0-.8-.4-.7-.8,0-.4.4-.8.8-.7.4,0,.8.4.7.8Z" fill="#28121f" stroke-width="0"/>
        <path d="m147.4,74.9l-3.1,7.5c0,0,0,.1,0,.2-.4.7-1.4.7-1.9.2-2.3-2.5-5.9-2.7-7.5-2.2l-3.3,4.4c-2.1,3.7-.3,6.2,2.7,7.2l4.5,1.6c4.7,1.2,7.7-1.8,9-5.4l3.7-11-4.1-2.3Z" fill="#28121f" stroke-width="0"/>
        <path d="m135.7,83.4c-1,0-1.7-.5-1.7-.5-.4-.2-.5-.7-.2-1.1.2-.4.7-.5,1.1-.2,0,0,.9.5,1.8,0,.3-.3.8-.2,1.1.2s.2.8-.2,1.1c-.6.5-1.3.6-1.8.6Z" fill="#db5349" stroke-width="0"/>
      </g>
      <path d="m134.1,101.1l4.2-5.9c.4-.4.9-.7,1.4-.6l17.9.5c.9,0,1.6.8,1.7,1.7l.3,4.1-25.6.2Z" fill="#fffeeb" stroke-width="0"/>
      <polygon points="186 201.9 111.2 201.9 111.1 184.2 181.6 184.2 186 201.9" fill="#28121f" stroke-width="0"/>
      <g>
        <path d="m179.4,171.9c-.1-.7-.1-1.4,0-2,.7-5.8,4-34.6,4-45,0-7.8-5.3-18.8-13.5-22.5-11.8-5.4-21.3-5.4-32.7-3.3-15.6,2.9-21.9,16.4-26.8,26.9-4.3,9.4-10.1,16-19.1,16s-17.4-5.8-21.9-24l-27.8,6c3.6,24.9,7.3,42.3,21.6,55.1,14.1,12.6,41.2,11.7,57.3,5.2h61.1l-2.3-12.3Z" fill="#3180b5" stroke-width="0"/>
        <path d="m120.5,185c-.3,0-.6-.2-.7-.4-.2-.4,0-.8.3-1,12.1-6.3,19-18.8,22.7-28.2,4-10.2,5.1-19.1,5.1-19.2,0-.4.4-.7.9-.7.4,0,.7.4.7.9,0,0-1.1,9.1-5.2,19.5-2.4,6.1-5.3,11.5-8.7,16.1-4.2,5.7-9.2,10.1-14.8,13-.1,0-.2,0-.4,0Z" fill="#1c5482" stroke-width="0"/>
        <g>
          <path d="m70.3,93.9c-1.1-3.7-6.6-6.1-6.6-6.1,0,0-1.1-4.6-2-8.5-.9-3.9-2.9-7.2-6.2-6.5-3.3.8-3.7,4.2-1.4,14.1,0,0-6-1.4-8.2,2,0,0-4.4-1.4-6.6,2,0,0-5.6-1.9-2.7,9.8,1.5,5.9,3.5,15,3.5,15l1.6,8.3,27.8-6-2-7.4s3.9-13,2.8-16.7Z" fill="#ffa194" stroke-width="0"/>
          <g>
            <path d="m55.9,95c-.4,0-.7-.2-.8-.6l-1.7-7.3c0-.4.2-.8.6-.9.4,0,.8.2.9.6l1.7,7.3c0,.4-.2.8-.6.9,0,0-.1,0-.2,0Z" fill="#db5349" stroke-width="0"/>
            <path d="m47.6,97c-.4,0-.7-.2-.8-.6l-1.7-7.3c0-.4.2-.8.6-.9.4,0,.8.2.9.6l1.7,7.3c0,.4-.2.8-.6.9,0,0-.1,0-.2,0Z" fill="#db5349" stroke-width="0"/>
            <path d="m41,98.7c-.4,0-.7-.2-.8-.6l-1.7-7.3c0-.4.2-.8.6-.9.4,0,.8.2.9.6l1.7,7.3c0,.4-.2.8-.6.9,0,0-.1,0-.2,0Z" fill="#db5349" stroke-width="0"/>
            <path d="m68.9,91.6l-2.2,4.5c-.2.4-.8.3-.9,0l-2.1-8.1s3.2,1.4,5.2,3.8Z" fill="#db5349" stroke-width="0"/>
          </g>
        </g>
        <path d="m63.2,179.1c-2.3-2-4.3-4.2-6.1-6.5,2.5-3.6,6.2-6.4,10.6-8.1,11.6-4.2,24.4,1.8,28.6,13.4,1.3,3.6,1.6,7.3,1.1,10.9-12.6.5-25.8-2.2-34.2-9.8Z" fill="#0dba98" stroke-width="0"/>
      </g>
      <path d="m183.8,193.8h-72.7c-.4,0-.8-.3-.8-.8s.3-.8.8-.8h72.7c.4,0,.8.3.8.8s-.3.8-.8.8Z" fill="#70529e" stroke-width="0"/>
      <path d="m166.6,193.8c-.4,0-.8-.3-.8-.8v-8.6c0-.4.3-.8.8-.8s.8.3.8.8v8.6c0,.4-.3.8-.8.8Z" fill="#70529e" stroke-width="0"/>
      <path d="m130.6,193.8c-.4,0-.8-.3-.8-.8v-8.6c0-.4.3-.8.8-.8s.8.3.8.8v8.6c0,.4-.3.8-.8.8Z" fill="#70529e" stroke-width="0"/>
      <path d="m8.7,5.9c-.4,0-.7-.3-.8-.6l-.9-4.4c0-.4.2-.8.6-.9.4,0,.8.2.9.6l.9,4.4c0,.4-.2.8-.6.9,0,0-.1,0-.2,0Z" fill="#ffb14c" stroke-width="0"/>
      <path d="m4.1,8.6c-.1,0-3.4-.5-3.4-.5-.4,0-.7-.5-.7-.9,0-.4.5-.7.9-.7l3.3.5c.4,0,.7.5.7.9,0,.4-.4.7-.8.7Z" fill="#ffb14c" stroke-width="0"/>
      <path d="m169.8,80.3c-.1,0-.2,0-.4,0l-2.8-1.5c-.2-.1-.3-.3-.4-.5,0-.2,0-.5.1-.6l2-2.7c.3-.3.7-.4,1.1-.2s.4.7.2,1.1l-1.5,2,2,1c.4.2.5.7.3,1-.1.3-.4.4-.7.4Z" fill="#28121f" stroke-width="0"/>
      <path d="m143.6,67.6c-.4,0-.8-.3-.8-.8,0-1.4.4-2.5,1.3-3.3,1.5-1.4,3.8-1.2,3.9-1.2.4,0,.7.4.7.9,0,.4-.4.7-.8.7,0,0-1.7-.1-2.7.8-.5.5-.8,1.2-.8,2.1,0,.4-.3.8-.8.8h0Z" fill="#70529e" stroke-width="0"/>
      <path d="m151.6,72.3c0,0-.1,0-.2,0-1.3-.4-2.3-1.1-2.8-2.1-.9-1.8,0-4,0-4,.2-.4.6-.6,1-.4.4.2.6.6.4,1,0,0-.7,1.6,0,2.8.3.6.9,1,1.8,1.3.4.1.7.5.5,1,0,.3-.4.6-.7.6Z" fill="#70529e" stroke-width="0"/>
      <path d="m116.1,39.7c0,1.8,1.5,3.3,3.3,3.3s3.3-1.5,3.3-3.3-1.5-3.3-3.3-3.3-3.3,1.5-3.3,3.3Z" fill="#fffeeb" stroke-width="0"/>
      <path d="m44.5,127.9c0,1.8,1.5,3.3,3.3,3.3s3.3-1.5,3.3-3.3-1.5-3.3-3.3-3.3-3.3,1.5-3.3,3.3Z" fill="#fffeeb" stroke-width="0"/>
      <path d="m41.7,124.8c-.4,0-.7-.2-.8-.6,0-.4.2-.8.6-.9l27.8-6c.4,0,.8.2.9.6,0,.4-.2.8-.6.9l-27.8,6c0,0-.1,0-.2,0Z" fill="#1c5482" stroke-width="0"/>
      <path d="m109.9,45.2c0,0-.2,0-.3,0-.4-.2-.6-.6-.4-1l10.5-26.3c.2-.4.6-.6,1-.4.4.2.6.6.4,1l-10.5,26.3c-.1.3-.4.5-.7.5Z" fill="#1c5482" stroke-width="0"/>
    </g>
  </g>
</svg>